<svg id="Group_745" data-name="Group 745" xmlns="http://www.w3.org/2000/svg" xmlns:xlink="http://www.w3.org/1999/xlink" width="294.309" height="117.172" viewBox="0 0 294.309 117.172">
  <defs>
    <clipPath id="clip-path">
      <rect id="Rectangle_762" data-name="Rectangle 762" width="294.309" height="117.172" fill="none"/>
    </clipPath>
  </defs>
  <g id="Group_742" data-name="Group 742" clip-path="url(#clip-path)">
    <path id="Path_663" data-name="Path 663" d="M103.858,51.912c.117.131.223.25.32.353.62.659,2.548,5.326,1.141,11.238C102.842,73.908,92.172,79.783,83.657,82.88a87.374,87.374,0,0,1-12.142,3.5c-2.482-2.176-6.92-2.292-10.813-.044a12.754,12.754,0,0,0-1.8,1.257c-6.39-.213-11.759-2-14.377-4.781A4.19,4.19,0,0,1,43.175,80c.121-3.76,3.855-4.512,10.445-5.514,1.472-.224,2.992-.458,4.553-.757-.343,1.626-.5,3.512,2.212,4.778a4.432,4.432,0,0,0,5.239-.971,12.345,12.345,0,0,0,3.1-7.48A20.251,20.251,0,0,0,73.4,66.25c10.389-11.506,18.63-17.34,24.495-17.34h.03a7.5,7.5,0,0,1,5.935,3M99.239,9.431a11.017,11.017,0,0,1,10.793,11.2,11.272,11.272,0,0,1-6.294,10.185,25.47,25.47,0,0,0-1.072-5.839,5.681,5.681,0,0,0,1.99-4.346,5.518,5.518,0,0,0-5.418-5.612,5.243,5.243,0,0,0-1.876.347,30.8,30.8,0,0,0-4.128-4.045,10.4,10.4,0,0,1,6-1.893M37.117,11.348a9.237,9.237,0,0,1,9.047-9.4,9.028,9.028,0,0,1,8.285,5.625A33.288,33.288,0,0,0,50.541,9.92a4.612,4.612,0,0,0-4.376-3.328,4.676,4.676,0,0,0-4.592,4.756,4.766,4.766,0,0,0,2.7,4.333,28.2,28.2,0,0,0-2.631,3.8,9.432,9.432,0,0,1-4.527-8.136m3.011,29.141.038-.02.053-.027.064-.044.036-.029.061-.063.023-.027.053-.08.013-.024.039-.094.007-.021.021-.105,0-.018v-.128l-.023-.114,0-.01a24.32,24.32,0,0,1,1.136-17.352,27.348,27.348,0,0,1,6.795-9.092,31.792,31.792,0,0,1,8.751-5.5A35.059,35.059,0,0,1,70.951,4.992a34.285,34.285,0,0,1,20.81,6.843,28.381,28.381,0,0,1,7.975,9.423,24.424,24.424,0,0,1,2.735,10.555c.006.227.009.455.009.683a24.928,24.928,0,0,1-5.192,15.117c-6.2.369-14.557,6.337-24.866,17.755a18.791,18.791,0,0,1-3.661,3.116,8.594,8.594,0,0,0-.614-3.023c-2.2-5.145-5.928-7.9-10.782-7.972A8.468,8.468,0,0,0,55.3,57.7c1.741-5.285.654-10.626-2.931-13.909-.092-.084-.188-.163-.283-.244a6.408,6.408,0,0,0,.132-1.3,4.154,4.154,0,0,0-.684-2.6.653.653,0,0,0-.254-.2,6.309,6.309,0,0,0-7.1,1.35,14.459,14.459,0,0,0-1.862.141,17.544,17.544,0,0,0-10.344,5.657,19.144,19.144,0,0,0-1.481,1.836A6.036,6.036,0,0,0,28,48.279a44.99,44.99,0,0,1,12.128-7.79M20.277,64.658A18.015,18.015,0,0,1,22.6,55a6.33,6.33,0,0,0,4.841,5.618,12.3,12.3,0,0,0,.979,3.072l0,.005.028.057.067.169.069.111c1.76,3.635,4.883,5.8,7.652,7.721,3.642,2.52,6.518,4.512,5.366,8.889-.256.973-1.425,1.992-3.424,2.107.2-1.88-.079-3.717-.993-4.578-1.658-1.564-3.707-1.123-5.687-.7-2.653.572-5.159,1.111-7.478-2.364l-.708-1.061-.019.05a18.26,18.26,0,0,1-3.014-9.444m11.25,39.507a21.544,21.544,0,0,0-1.273,2.29,13.2,13.2,0,0,1-4.31,4.026c-7.119,4.11-16.733.835-21.43-7.3A18.212,18.212,0,0,1,2.281,90.521,13.939,13.939,0,0,1,8.906,80.97a14.184,14.184,0,0,1,13.135-.342,10.066,10.066,0,0,0,.89,3.824,9.125,9.125,0,0,0,5.592,4.727,10.266,10.266,0,0,0,2.578.563,17.506,17.506,0,0,1,.427,14.423m2.295-2.926a19.264,19.264,0,0,0-1.291-11.528A5.715,5.715,0,0,0,35.17,88.7a7.811,7.811,0,0,0-.662,2.456A11.462,11.462,0,0,0,36.1,98.019a12.876,12.876,0,0,0,.744,1.14,8.82,8.82,0,0,0-3.023,2.079m45.251,4.48a19.5,19.5,0,0,0-9.894-7.7A11.043,11.043,0,0,0,72.737,93.7a6.441,6.441,0,0,0-.075-5.931c-.051-.088-.106-.174-.162-.259a89.654,89.654,0,0,0,11.606-3.4A56.457,56.457,0,0,0,92.8,80.14a4.146,4.146,0,0,0,.191,1.573,4.9,4.9,0,0,0,1.921,2.456,25.568,25.568,0,0,0-8.2,5.217c-5.1,4.775-7.768,10.931-7.636,16.334m34.115-7.591a24,24,0,0,1-19.474,18.248c-4.306.516-8.033-.645-10.492-3.27-5.132-5.476-3.164-15.687,4.386-22.762a23.98,23.98,0,0,1,9.021-5.4h0a18,18,0,0,1,5.427-.885,11.42,11.42,0,0,1,8.547,3.389c2.459,2.624,3.376,6.418,2.581,10.682M78.3,29a3.885,3.885,0,1,0-5.336-3.862A15.86,15.86,0,0,1,78.3,29M66.912,23.321a4,4,0,1,0-7.108.289,17.037,17.037,0,0,1,7.108-.289m-9.56,8.945a.657.657,0,0,0,.248-.048l1.1-.451c.134,1.984,1,6.436,6.039,7.325a9.426,9.426,0,0,0,1.637.146,9.693,9.693,0,0,0,7.313-3.649l.524.957a.657.657,0,0,0,.577.342.65.65,0,0,0,.315-.081.657.657,0,0,0,.261-.892L73.335,32.2a.657.657,0,0,0-1.153.631l.828,1.514a8.184,8.184,0,0,1-8.04,3.455c-4.638-.819-4.98-5.272-4.981-6.556l.922-.376a.657.657,0,1,0-.5-1.216L57.1,31a.657.657,0,0,0,.249,1.266m7.459-6.949a2.219,2.219,0,0,0-1.95,1.192c-.748,1.541.528,4.026,1.1,5.007a6.353,6.353,0,0,0-.374,4.294.657.657,0,0,0,1.256-.386,5.018,5.018,0,0,1,.244-3.2c.675.034,1.309.053,1.9.053,3.726,0,5.771-.688,6.227-2.086.37-1.134-.489-2.312-1.444-2.927a12.774,12.774,0,0,0-6.959-1.948" transform="translate(-0.638 -0.638)" fill="#b6dcd9"/>
    <path id="Path_664" data-name="Path 664" d="M48.372,86.74a9.527,9.527,0,0,1-8.259-4.784c-.039-.081-.081-.16-.118-.243L39.99,81.7v0a11.093,11.093,0,0,1-.931-3.1l-.022-.137a15.637,15.637,0,0,1,4.292-12.416,16.226,16.226,0,0,1,9.559-5.243,13.126,13.126,0,0,1,1.943-.132l.023,0h.009a10.361,10.361,0,0,1,7.007,2.65c3.431,3.14,4.273,8.449,2.181,13.576a5.99,5.99,0,0,0-2.8,4.63.657.657,0,0,0,1.313.05c.007-.175.236-4.286,5.167-4.209,4.356.063,7.584,2.476,9.592,7.174,1.268,2.965.143,8.323-2.228,10.618a3.818,3.818,0,0,1-1.461.923,3.725,3.725,0,0,0,.675-2.419.654.654,0,0,0-.734-.555.662.662,0,0,0-.569.732,2.714,2.714,0,0,1-1.14,2.25,3.927,3.927,0,0,1-.54-.206c-.108-.05-.205-.1-.3-.152a3.824,3.824,0,0,0,1.021-2.873.653.653,0,0,0-.734-.555.66.66,0,0,0-.568.732,2.551,2.551,0,0,1-.741,1.868c-.521-.732-.327-1.6-.058-2.8.462-2.048,1.1-4.853-3.3-7.238a.657.657,0,0,0-.627,1.155c2.993,1.624,3.135,3.229,2.833,4.9l-.156.01c-1.672.331-3.307.58-4.889.821-4.566.7-8.667,1.32-10.519,3.688-.813-2.666-3.315-4.4-5.921-6.2-.843-.583-1.693-1.173-2.514-1.8a12.279,12.279,0,0,0,3.472.614h.024a.657.657,0,0,0,.023-1.314m8.15-27.255a4.94,4.94,0,0,1,4.111-.453,5.859,5.859,0,0,0-.248,1.668,11.751,11.751,0,0,0-3.863-1.215M34.948,70.58q.483-.626,1-1.219a4.946,4.946,0,0,1,3.3-1.262,5.015,5.015,0,0,1,.86.075,18.346,18.346,0,0,0-1.04,1.992,2.911,2.911,0,0,0-1.4,5.351,14.42,14.42,0,0,0-.014,2.261,5.007,5.007,0,0,1-3.374-4.707,4.939,4.939,0,0,1,.675-2.49M42.86,99.189a.657.657,0,0,0,.842.393,4.2,4.2,0,0,0,2.519-2.228,2.772,2.772,0,0,1,.447.345,1.8,1.8,0,0,1,.4.755,2.784,2.784,0,0,1-1.976,1.558.657.657,0,0,0,.172,1.291l.172-.024a4.554,4.554,0,0,0,1.877-.991,8.583,8.583,0,0,1-1.127,4.384c-1.379,2.275-3.746,2.91-6.849,1.834a7.862,7.862,0,0,1-4.829-4.034,11.057,11.057,0,0,1-.387-6.991c2.629,3.014,5.6,2.374,8.035,1.849a10.675,10.675,0,0,1,2.792-.363,2.98,2.98,0,0,1-1.7,1.378.658.658,0,0,0-.393.842m16.47,16.31a5.385,5.385,0,0,1-2.421,4.689c-2.822,1.629-6.986-.279-9.281-4.255A10.151,10.151,0,0,1,46.2,109.87a5.165,5.165,0,0,1,2.382-4.1,4.43,4.43,0,0,1,2.236-.58,6.233,6.233,0,0,1,2.507.569,10.144,10.144,0,0,1,4.538,4.267,10.432,10.432,0,0,1,1.466,5.472v0Zm6.435-1a8.14,8.14,0,0,0-5.145.074,11.983,11.983,0,0,0-1.617-5.2,11.467,11.467,0,0,0-5.146-4.812,6.437,6.437,0,0,0-5.931.076c-.114.065-.224.135-.331.207a9.885,9.885,0,0,0,.75-2.2,5.474,5.474,0,0,0,4.418-2.038,7.19,7.19,0,0,0,1.192,1.677c1.311,1.4,5.237,4.577,14.045,5.134a8.163,8.163,0,0,0-2.235,7.08m11.89,1.785a10.143,10.143,0,0,1-6.063,1.426,5.163,5.163,0,0,1-4.1-2.381v0h0c-1.627-2.823.282-6.985,4.257-9.28a10.56,10.56,0,0,1,5.2-1.476A5.485,5.485,0,0,1,81.909,107a5.165,5.165,0,0,1,.011,4.743,10.141,10.141,0,0,1-4.267,4.538M52.964,69.891a2.114,2.114,0,1,0-2.114-2.115,2.117,2.117,0,0,0,2.114,2.115m4.176-3.8a2.114,2.114,0,1,0-2.114-2.114,2.117,2.117,0,0,0,2.114,2.114m.519,1.6a1.77,1.77,0,0,0,.95,2.246,4.049,4.049,0,0,0,1.875.479,1.768,1.768,0,0,0,1.448-.56,8.2,8.2,0,0,0,.831-1.3,2.941,2.941,0,0,1,.339,1.332,1.524,1.524,0,0,1-.577,1.14c-1.812,1.562-4.965-.642-5-.664l-.753-.538-.656,2.242a.657.657,0,0,0,.447.815.646.646,0,0,0,.184.026.657.657,0,0,0,.63-.473l.155-.53c1.289.706,3.918,1.778,5.846.116a2.808,2.808,0,0,0,1.032-2.093,5.385,5.385,0,0,0-1.167-3.11,2.215,2.215,0,0,0-.526-1.535,1.7,1.7,0,0,0-2.071-.465c-.248.146-2.444,1.468-2.992,2.874" transform="translate(-11.025 -19.209)" fill="#e8f2e8"/>
    <path id="Path_665" data-name="Path 665" d="M73.2,67.787c2.5,2.5,1.927,7.137-1.287,10.351s-7.849,3.79-10.352,1.287-1.926-7.137,1.288-10.351S70.7,65.284,73.2,67.787" transform="translate(-19.61 -21.645)" fill="#b6dcd9"/>
    <path id="Path_666" data-name="Path 666" d="M146.482,134.541c3.849,4.108,2.437,11.686-3.155,16.925s-13.245,6.156-17.094,2.048-2.437-11.685,3.155-16.925,13.245-6.156,17.094-2.049" transform="translate(-40.546 -43.13)" fill="#e0396b"/>
    <path id="Path_667" data-name="Path 667" d="M14.859,126.792c4.565-2.636,11.011-.015,14.4,5.852s2.434,12.76-2.131,15.4-11.012.015-14.4-5.852-2.433-12.76,2.132-15.4" transform="translate(-3.496 -41.102)" fill="#e0396b"/>
    <path id="Path_668" data-name="Path 668" d="M104.891,48.405c-1.826,6.76-10,12.259-17.692,10.181S75.214,47.642,77.04,40.882s9.081-8.853,16.772-6.776,12.906,7.539,11.079,14.3" transform="translate(-25.041 -10.895)" fill="#e8f2e8"/>
    <path id="Path_669" data-name="Path 669" d="M110.927,85.91c-3.54-3.778-9.266-4.673-15.037-2.935A4.254,4.254,0,0,1,93.6,80.683a3.109,3.109,0,0,1,.1-2.105c5.651-3.545,10.62-8.523,12.258-15.411,1.472-6.189-.423-11.337-1.461-12.441-.09-.095-.188-.205-.3-.327a8.911,8.911,0,0,0-5.948-3.385,26.133,26.133,0,0,0,4.9-15.156c0-.087,0-.172,0-.259A12.565,12.565,0,0,0,110.708,20,12.332,12.332,0,0,0,98.6,7.478,11.712,11.712,0,0,0,91.507,9.85,35.674,35.674,0,0,0,70.313,3.039,36.352,36.352,0,0,0,56.04,5.9c-.353.149-.7.308-1.048.469A10.332,10.332,0,0,0,45.525,0,10.552,10.552,0,0,0,35.164,10.71,10.741,10.741,0,0,0,40.375,20c-.2.38-.386.763-.563,1.153A25.6,25.6,0,0,0,38.45,38.863a46.746,46.746,0,0,0-10.041,6.106,34.053,34.053,0,0,0-4.584,4.405,6.328,6.328,0,0,0-.887,1.091,20.436,20.436,0,0,0-4.611,13.617A19.419,19.419,0,0,0,22.1,74.954a15.321,15.321,0,0,0-.679,3.6,15.394,15.394,0,0,0-13.809.637A15.236,15.236,0,0,0,.354,89.625,19.528,19.528,0,0,0,2.737,103.2c3.565,6.174,9.788,9.731,15.863,9.73a14.637,14.637,0,0,0,7.363-1.948A14.469,14.469,0,0,0,30.6,106.7a.637.637,0,0,0,.145-.2l.025-.053a15.766,15.766,0,0,0,1.253-2.25c1.129-1.77,2.926-4.008,5.072-4.592a9.273,9.273,0,0,0,6.574,3.258,5.681,5.681,0,0,0,2.87-.748,6.557,6.557,0,0,0,3.042-5.345,6.951,6.951,0,0,1,5.86.187A6.491,6.491,0,0,0,60.425,99.8a9.451,9.451,0,0,0,1.019.055,11.752,11.752,0,0,0,5.612-1.525c1.271.3,8.016,2.233,11.908,10.3l0,0a11.547,11.547,0,0,0,2.658,4.735,12.65,12.65,0,0,0,9.481,3.806,17.848,17.848,0,0,0,2.126-.13,25.306,25.306,0,0,0,20.609-19.311c.874-4.685-.161-8.884-2.914-11.821m-7.708-34.637c.117.131.224.251.32.353.62.659,2.549,5.326,1.141,11.237C102.2,73.27,91.534,79.145,83.019,82.241a87.2,87.2,0,0,1-12.143,3.5c-2.481-2.176-6.92-2.292-10.813-.043a12.683,12.683,0,0,0-1.8,1.257c-6.389-.213-11.759-2-14.377-4.782a4.184,4.184,0,0,1-1.35-2.807c.121-3.76,3.855-4.511,10.445-5.514,1.472-.224,2.992-.458,4.553-.757-.343,1.626-.5,3.513,2.212,4.778a4.434,4.434,0,0,0,5.239-.97,12.351,12.351,0,0,0,3.1-7.48,20.254,20.254,0,0,0,4.676-3.81C83.148,54.1,91.389,48.271,97.254,48.271h.03a7.5,7.5,0,0,1,5.935,3M37.347,67.531a9.527,9.527,0,0,1-8.259-4.784c-.039-.081-.081-.16-.118-.243l-.005-.009v0a11.093,11.093,0,0,1-.931-3.1l-.022-.137A15.637,15.637,0,0,1,32.3,46.843,16.226,16.226,0,0,1,41.862,41.6a13.126,13.126,0,0,1,1.943-.132l.023,0h.009a10.361,10.361,0,0,1,7.007,2.65c3.431,3.14,4.273,8.449,2.181,13.576a5.99,5.99,0,0,0-2.8,4.63.657.657,0,0,0,1.313.05c.007-.175.236-4.286,5.167-4.209,4.356.063,7.584,2.476,9.592,7.174,1.268,2.965.143,8.323-2.228,10.618a3.818,3.818,0,0,1-1.461.923,3.725,3.725,0,0,0,.675-2.419.654.654,0,0,0-.734-.555.662.662,0,0,0-.569.732,2.714,2.714,0,0,1-1.14,2.25,3.928,3.928,0,0,1-.54-.206c-.108-.05-.205-.1-.3-.152a3.824,3.824,0,0,0,1.021-2.873.653.653,0,0,0-.734-.555.66.66,0,0,0-.568.732A2.551,2.551,0,0,1,58.98,75.7c-.521-.732-.327-1.6-.058-2.8.462-2.048,1.1-4.853-3.3-7.238a.657.657,0,0,0-.627,1.155c2.993,1.624,3.135,3.229,2.833,4.9l-.156.01c-1.672.331-3.307.58-4.889.821-4.566.7-8.667,1.32-10.519,3.688-.813-2.666-3.315-4.4-5.921-6.2-.843-.583-1.693-1.173-2.514-1.8a12.279,12.279,0,0,0,3.472.614h.024a.657.657,0,0,0,.023-1.314M45.5,40.276a4.94,4.94,0,0,1,4.111-.453,5.859,5.859,0,0,0-.248,1.668A11.751,11.751,0,0,0,45.5,40.276M98.6,8.793A11.018,11.018,0,0,1,109.394,20,11.273,11.273,0,0,1,103.1,30.183a25.463,25.463,0,0,0-1.072-5.839A5.679,5.679,0,0,0,104.018,20,5.518,5.518,0,0,0,98.6,14.385a5.24,5.24,0,0,0-1.876.347A30.72,30.72,0,0,0,92.6,10.686a10.394,10.394,0,0,1,6-1.894M36.478,10.71a9.237,9.237,0,0,1,9.047-9.4,9.029,9.029,0,0,1,8.286,5.625A33.328,33.328,0,0,0,49.9,9.281a4.611,4.611,0,0,0-4.376-3.328,4.677,4.677,0,0,0-4.592,4.757,4.765,4.765,0,0,0,2.7,4.333,28.206,28.206,0,0,0-2.631,3.8,9.432,9.432,0,0,1-4.527-8.136m3.011,29.14.038-.02.053-.028.064-.044.036-.029.061-.063.022-.027.053-.08.013-.024.038-.094.007-.022.021-.105,0-.018v-.128l-.024-.114,0-.01a24.32,24.32,0,0,1,1.136-17.352A27.357,27.357,0,0,1,47.8,12.6a31.786,31.786,0,0,1,8.751-5.5,35.048,35.048,0,0,1,13.76-2.751A34.289,34.289,0,0,1,91.123,11.2,28.387,28.387,0,0,1,99.1,20.621a24.409,24.409,0,0,1,2.735,10.554c.006.228.01.456.01.684a24.934,24.934,0,0,1-5.192,15.117c-6.2.368-14.558,6.337-24.867,17.755a18.745,18.745,0,0,1-3.661,3.116,8.6,8.6,0,0,0-.614-3.023c-2.2-5.145-5.928-7.9-10.782-7.972a8.5,8.5,0,0,0-2.064.207c1.742-5.285.654-10.626-2.931-13.909-.092-.085-.188-.164-.283-.244a6.452,6.452,0,0,0,.131-1.3A4.149,4.149,0,0,0,50.9,39a.643.643,0,0,0-.254-.2,6.308,6.308,0,0,0-7.1,1.35,14.457,14.457,0,0,0-1.862.141,17.541,17.541,0,0,0-10.344,5.658,19.145,19.145,0,0,0-1.482,1.835,6.3,6.3,0,0,0-1.632-.215,6.221,6.221,0,0,0-.858.066A45.013,45.013,0,0,1,39.489,39.85M23.923,51.371q.483-.626,1-1.219a4.946,4.946,0,0,1,3.3-1.262,5.015,5.015,0,0,1,.86.075,18.347,18.347,0,0,0-1.04,1.992,2.911,2.911,0,0,0-1.4,5.351,14.42,14.42,0,0,0-.014,2.261,5.007,5.007,0,0,1-3.374-4.707,4.939,4.939,0,0,1,.675-2.49M19.639,64.02a18,18,0,0,1,2.318-9.656A6.328,6.328,0,0,0,26.8,59.981a12.3,12.3,0,0,0,.978,3.071l0,.006.028.057.067.168.068.111c1.76,3.635,4.883,5.8,7.653,7.721,3.641,2.521,6.518,4.512,5.365,8.889-.256.973-1.425,1.992-3.424,2.106.2-1.88-.079-3.717-.993-4.578-1.658-1.563-3.707-1.122-5.686-.7-2.654.572-5.159,1.111-7.478-2.364l-.708-1.062-.02.05a18.249,18.249,0,0,1-3.013-9.443m12.2,15.959a.657.657,0,0,0,.842.393A4.2,4.2,0,0,0,35.2,78.145a2.772,2.772,0,0,1,.447.345,1.8,1.8,0,0,1,.4.755A2.784,2.784,0,0,1,34.069,80.8a.657.657,0,0,0,.172,1.291l.172-.024a4.554,4.554,0,0,0,1.877-.991,8.583,8.583,0,0,1-1.127,4.384c-1.379,2.275-3.746,2.91-6.849,1.834a7.862,7.862,0,0,1-4.829-4.034,11.057,11.057,0,0,1-.387-6.991c2.629,3.014,5.6,2.374,8.035,1.849a10.675,10.675,0,0,1,2.792-.363,2.98,2.98,0,0,1-1.7,1.378.658.658,0,0,0-.393.842m-.946,23.548a21.673,21.673,0,0,0-1.273,2.29,13.2,13.2,0,0,1-4.31,4.026c-7.12,4.11-16.734.835-21.43-7.3A18.22,18.22,0,0,1,1.642,89.883a13.942,13.942,0,0,1,6.625-9.552A14.187,14.187,0,0,1,21.4,79.989a10.055,10.055,0,0,0,.889,3.824,9.127,9.127,0,0,0,5.592,4.727,10.3,10.3,0,0,0,2.578.563,17.506,17.506,0,0,1,.427,14.423m2.295-2.926a19.265,19.265,0,0,0-1.291-11.528,5.712,5.712,0,0,0,2.638-1.009,7.829,7.829,0,0,0-.662,2.456,11.468,11.468,0,0,0,1.595,6.862,13.012,13.012,0,0,0,.743,1.14,8.829,8.829,0,0,0-3.023,2.079M48.3,96.289a5.385,5.385,0,0,1-2.421,4.689c-2.822,1.629-6.986-.279-9.281-4.255a10.151,10.151,0,0,1-1.426-6.064,5.165,5.165,0,0,1,2.382-4.1,4.43,4.43,0,0,1,2.236-.58,6.233,6.233,0,0,1,2.507.569,10.144,10.144,0,0,1,4.538,4.267A10.432,10.432,0,0,1,48.3,96.285v0Zm6.435-1a8.14,8.14,0,0,0-5.145.074,11.983,11.983,0,0,0-1.617-5.2,11.467,11.467,0,0,0-5.146-4.812,6.437,6.437,0,0,0-5.931.076c-.114.065-.224.135-.331.207a9.885,9.885,0,0,0,.75-2.2,5.474,5.474,0,0,0,4.418-2.038,7.19,7.19,0,0,0,1.192,1.677c1.311,1.4,5.237,4.577,14.045,5.134a8.163,8.163,0,0,0-2.235,7.08m11.89,1.785A10.143,10.143,0,0,1,60.566,98.5a5.163,5.163,0,0,1-4.1-2.381v0h0c-1.627-2.823.282-6.985,4.257-9.28a10.56,10.56,0,0,1,5.2-1.476,5.485,5.485,0,0,1,4.961,2.432,5.165,5.165,0,0,1,.011,4.743,10.141,10.141,0,0,1-4.267,4.538m11.805,8.01a19.5,19.5,0,0,0-9.894-7.7A11.043,11.043,0,0,0,72.1,93.064a6.439,6.439,0,0,0-.075-5.931c-.051-.089-.106-.174-.162-.259a89.54,89.54,0,0,0,11.606-3.4,56.555,56.555,0,0,0,8.69-3.975,4.146,4.146,0,0,0,.191,1.573A4.9,4.9,0,0,0,94.27,83.53a25.585,25.585,0,0,0-8.2,5.217c-5.1,4.775-7.768,10.931-7.636,16.334m34.115-7.591a24,24,0,0,1-19.475,18.248c-4.306.516-8.032-.646-10.492-3.27-5.132-5.477-3.164-15.688,4.386-22.763a23.992,23.992,0,0,1,9.021-5.4h0a17.982,17.982,0,0,1,5.427-.886,11.422,11.422,0,0,1,8.547,3.39c2.459,2.624,3.375,6.418,2.581,10.682M41.939,50.682a2.114,2.114,0,1,0-2.114-2.114,2.117,2.117,0,0,0,2.114,2.114m4.176-3.8A2.114,2.114,0,1,0,44,44.763a2.117,2.117,0,0,0,2.114,2.114M77.667,28.359A3.885,3.885,0,1,0,72.33,24.5a15.878,15.878,0,0,1,5.336,3.861M66.274,22.683a4,4,0,1,0-7.109.289,17.04,17.04,0,0,1,7.109-.289m-9.561,8.945a.648.648,0,0,0,.248-.049l1.1-.45c.134,1.984,1,6.435,6.039,7.324a9.369,9.369,0,0,0,1.637.147,9.7,9.7,0,0,0,7.314-3.649l.524.957a.657.657,0,1,0,1.153-.631L72.7,31.56a.657.657,0,1,0-1.153.631l.829,1.514a8.188,8.188,0,0,1-8.041,3.455c-4.638-.819-4.98-5.272-4.98-6.556l.922-.376a.657.657,0,1,0-.5-1.216l-3.312,1.352a.657.657,0,0,0,.248,1.266m7.459-6.949a2.219,2.219,0,0,0-1.95,1.192c-.748,1.541.529,4.025,1.1,5.007a6.351,6.351,0,0,0-.374,4.293.656.656,0,0,0,.627.462.658.658,0,0,0,.63-.848,5.017,5.017,0,0,1,.243-3.2c.675.034,1.309.053,1.9.053,3.726,0,5.771-.687,6.227-2.086.37-1.133-.489-2.312-1.443-2.927a12.783,12.783,0,0,0-6.959-1.948m-17.537,23.8a1.77,1.77,0,0,0,.95,2.246,4.049,4.049,0,0,0,1.875.479,1.768,1.768,0,0,0,1.448-.56,8.2,8.2,0,0,0,.831-1.3,2.941,2.941,0,0,1,.339,1.332,1.524,1.524,0,0,1-.577,1.14c-1.812,1.562-4.965-.642-5-.664l-.753-.538L45.1,52.848a.657.657,0,0,0,.447.815.646.646,0,0,0,.184.026.657.657,0,0,0,.63-.473l.155-.53c1.289.706,3.918,1.778,5.846.116a2.808,2.808,0,0,0,1.032-2.093,5.385,5.385,0,0,0-1.167-3.11,2.215,2.215,0,0,0-.526-1.535,1.7,1.7,0,0,0-2.071-.465c-.248.146-2.444,1.468-2.992,2.874" transform="translate(0)" fill="#136c82"/>
    <path id="Path_670" data-name="Path 670" d="M69.764,97.528l-.007-.019A2.342,2.342,0,0,0,66.679,96.2,2.021,2.021,0,0,0,65.5,98.378a2.021,2.021,0,0,0-2.4-.619,2.34,2.34,0,0,0-1.134,3.146l.008.019c.1.256,1.233,2.827,6.039,3.229h0c2.976-3.8,1.859-6.373,1.742-6.623" transform="translate(-20.182 -31.376)" fill="#e0396b"/>
    <path id="Path_671" data-name="Path 671" d="M111.14,38.815a2.157,2.157,0,1,0-3.19-2.243,18.641,18.641,0,0,1,3.19,2.243" transform="translate(-35.279 -11.367)" fill="#e8f2e8"/>
    <path id="Path_672" data-name="Path 672" d="M92.692,32.8a2.182,2.182,0,1,0-3.874.135,20.887,20.887,0,0,1,3.874-.135" transform="translate(-28.935 -9.7)" fill="#e8f2e8"/>
    <path id="Path_673" data-name="Path 673" d="M63.315,71.963a.907.907,0,1,1,0-1.282.907.907,0,0,1,0,1.282" transform="translate(-20.186 -23.012)" fill="#e8f2e8"/>
    <path id="Path_674" data-name="Path 674" d="M70.317,65.662a.907.907,0,1,1-.907-.907.907.907,0,0,1,.907.907" transform="translate(-22.387 -21.162)" fill="#e8f2e8"/>
    <path id="Path_675" data-name="Path 675" d="M181.469,47.463V64.98a2.51,2.51,0,0,1-2.573,2.4,2.583,2.583,0,0,1-2.573-2.4V47.463h-4.652a2.3,2.3,0,0,1-2.115-2.256,2.209,2.209,0,0,1,2.115-2.29h14.45a2.209,2.209,0,0,1,2.115,2.29,2.3,2.3,0,0,1-2.115,2.256Z" transform="translate(-55.412 -14.026)" fill="#136c82"/>
    <path id="Path_676" data-name="Path 676" d="M209.909,69.681a10.373,10.373,0,0,1-5.675,1.481,8.351,8.351,0,0,1-8.6-8.6,8.512,8.512,0,1,1,17.022.141,1.526,1.526,0,0,1-1.515,1.515H200.533c.246,1.9,2.327,2.714,4.053,2.714a4.463,4.463,0,0,0,2.855-.776,2.294,2.294,0,0,1,3.1.247,2.134,2.134,0,0,1-.634,3.277m-2.185-8.529a3.2,3.2,0,0,0-3.454-3,3.452,3.452,0,0,0-3.666,3Z" transform="translate(-63.935 -17.67)" fill="#136c82"/>
    <path id="Path_677" data-name="Path 677" d="M237.107,43.165a2.407,2.407,0,0,1,2.467-2.185,2.336,2.336,0,0,1,2.467,2.185V64.558a2.336,2.336,0,0,1-2.467,2.186,2.407,2.407,0,0,1-2.467-2.186v-.317a5.839,5.839,0,0,1-4.934,2.644c-4.194,0-8-3.1-8-8.565s3.806-8.529,8-8.529a6.1,6.1,0,0,1,4.934,2.643Zm-3.983,19.349a4.161,4.161,0,0,0,0-8.318,4.169,4.169,0,0,0,0,8.318" transform="translate(-73.261 -13.393)" fill="#136c82"/>
    <path id="Path_678" data-name="Path 678" d="M268.787,43.165a2.407,2.407,0,0,1,2.467-2.185,2.336,2.336,0,0,1,2.467,2.185V64.558a2.336,2.336,0,0,1-2.467,2.186,2.407,2.407,0,0,1-2.467-2.186v-.317a5.84,5.84,0,0,1-4.935,2.644c-4.194,0-8-3.1-8-8.565s3.806-8.529,8-8.529a6.1,6.1,0,0,1,4.935,2.643ZM264.8,62.514a4.161,4.161,0,0,0,0-8.318,4.169,4.169,0,0,0,0,8.318" transform="translate(-83.615 -13.393)" fill="#136c82"/>
    <path id="Path_679" data-name="Path 679" d="M293.655,77.643a2.51,2.51,0,0,1-3.1,1.375,2.2,2.2,0,0,1-1.41-2.96l2.749-6.838-5.111-11.913a2.218,2.218,0,0,1,1.445-2.925,2.4,2.4,0,0,1,3.066,1.41l3.1,8.036,3.172-8.036a2.4,2.4,0,0,1,3.066-1.41,2.218,2.218,0,0,1,1.445,2.925Z" transform="translate(-93.677 -17.737)" fill="#136c82"/>
    <path id="Path_680" data-name="Path 680" d="M328.584,67.2a2.036,2.036,0,0,1-2.044-2.185V45.1a2.038,2.038,0,0,1,2.044-2.186h7.684c4.37,0,7.189,2.609,7.189,6.767a4.793,4.793,0,0,1-3.312,4.547,5.9,5.9,0,0,1,4.582,5.533c0,4.018-2.926,7.437-7.754,7.437Zm7.19-14.591a2.357,2.357,0,0,0,2.256-2.573c0-1.516-.776-2.573-2.291-2.573h-4.018v5.146ZM331.722,56.7v5.956h4.969a2.789,2.789,0,0,0,2.609-3.031,2.754,2.754,0,0,0-2.714-2.926Z" transform="translate(-106.716 -14.025)" fill="#136c82"/>
    <path id="Path_681" data-name="Path 681" d="M371.867,69.681a10.373,10.373,0,0,1-5.675,1.481,8.351,8.351,0,0,1-8.6-8.6,8.512,8.512,0,1,1,17.022.141,1.526,1.526,0,0,1-1.516,1.515H362.491c.246,1.9,2.327,2.714,4.053,2.714a4.463,4.463,0,0,0,2.855-.776,2.294,2.294,0,0,1,3.1.247,2.135,2.135,0,0,1-.634,3.277m-2.185-8.529a3.2,3.2,0,0,0-3.454-3,3.452,3.452,0,0,0-3.666,3Z" transform="translate(-116.864 -17.67)" fill="#136c82"/>
    <path id="Path_682" data-name="Path 682" d="M399.064,56.394a2.407,2.407,0,0,1,2.468-2.185A2.336,2.336,0,0,1,404,56.394V68.835a2.336,2.336,0,0,1-2.467,2.186,2.407,2.407,0,0,1-2.468-2.186v-.317a5.84,5.84,0,0,1-4.934,2.644c-4.194,0-8-3.1-8-8.565s3.807-8.529,8-8.529a6.094,6.094,0,0,1,4.934,2.643Zm-3.982,10.4a4.161,4.161,0,0,0,0-8.318,4.169,4.169,0,0,0,0,8.318" transform="translate(-126.19 -17.67)" fill="#136c82"/>
    <path id="Path_683" data-name="Path 683" d="M431.157,56.782a2.271,2.271,0,0,1-2.432,1.8c-.353,0-.881-.036-1.2-.036-2.749,0-3.666,2.115-3.736,6.238v4.053a2.336,2.336,0,0,1-2.467,2.185,2.407,2.407,0,0,1-2.467-2.185V56.394a2.407,2.407,0,0,1,2.467-2.185,2.336,2.336,0,0,1,2.467,2.185v1.8c.916-3.066,2.644-4.123,4.335-4.123,1.621,0,3.348.387,3.031,2.714" transform="translate(-136.886 -17.67)" fill="#136c82"/>
    <path id="Path_684" data-name="Path 684" d="M186.123,89.242a2.209,2.209,0,0,1,2.115,2.291,2.3,2.3,0,0,1-2.115,2.256h-8.072v5.569h5.992a2.168,2.168,0,0,1,2.114,2.22,2.239,2.239,0,0,1-2.114,2.221h-5.992v7.507a2.51,2.51,0,0,1-2.573,2.4,2.583,2.583,0,0,1-2.573-2.4V91.427a2.038,2.038,0,0,1,2.044-2.185Z" transform="translate(-56.507 -29.165)" fill="#136c82"/>
    <path id="Path_685" data-name="Path 685" d="M196.262,108.887a8.254,8.254,0,0,1,8.634-8.494c4.793,0,8.67,3.313,8.67,8.494a8.652,8.652,0,0,1-17.3,0m12.371,0a3.718,3.718,0,1,0-7.437,0,3.72,3.72,0,1,0,7.437,0" transform="translate(-64.14 -32.809)" fill="#136c82"/>
    <path id="Path_686" data-name="Path 686" d="M237.609,114.842a5.463,5.463,0,0,1-4.758,2.714c-3.7,0-6.062-1.832-6.062-6.52v-8.248a2.335,2.335,0,0,1,2.467-2.185,2.407,2.407,0,0,1,2.468,2.185v6.767c0,2.186.811,3.243,2.855,3.243,1.726,0,3.031-.811,3.031-3.313v-6.7a2.335,2.335,0,0,1,2.467-2.185,2.407,2.407,0,0,1,2.467,2.185v12.442a2.407,2.407,0,0,1-2.467,2.185,2.335,2.335,0,0,1-2.467-2.185Z" transform="translate(-74.117 -32.878)" fill="#136c82"/>
    <path id="Path_687" data-name="Path 687" d="M261.308,103.09a5.5,5.5,0,0,1,4.758-2.749c3.7,0,6.062,2.291,6.062,6.979v7.824a2.335,2.335,0,0,1-2.467,2.185,2.407,2.407,0,0,1-2.468-2.185v-6.767c0-2.185-1.2-3.278-2.854-3.278-1.727,0-3.032.846-3.032,3.348v6.7a2.335,2.335,0,0,1-2.467,2.185,2.407,2.407,0,0,1-2.467-2.185V102.7a2.407,2.407,0,0,1,2.467-2.185,2.335,2.335,0,0,1,2.467,2.185Z" transform="translate(-83.785 -32.792)" fill="#136c82"/>
    <path id="Path_688" data-name="Path 688" d="M297.585,89.491a2.407,2.407,0,0,1,2.467-2.185,2.335,2.335,0,0,1,2.467,2.185v21.393a2.336,2.336,0,0,1-2.467,2.186,2.407,2.407,0,0,1-2.467-2.186v-.317a5.839,5.839,0,0,1-4.935,2.644c-4.194,0-8-3.1-8-8.565s3.806-8.529,8-8.529a6.1,6.1,0,0,1,4.935,2.643ZM293.6,108.84a4.161,4.161,0,0,0,0-8.318,4.169,4.169,0,0,0,0,8.318" transform="translate(-93.026 -28.532)" fill="#136c82"/>
    <path id="Path_689" data-name="Path 689" d="M329.265,102.72a2.407,2.407,0,0,1,2.467-2.185,2.336,2.336,0,0,1,2.467,2.185v12.441a2.336,2.336,0,0,1-2.467,2.186,2.407,2.407,0,0,1-2.467-2.186v-.317a5.84,5.84,0,0,1-4.935,2.644c-4.194,0-8-3.1-8-8.565s3.806-8.529,8-8.529a6.1,6.1,0,0,1,4.935,2.643Zm-3.983,10.4a4.161,4.161,0,0,0,0-8.318,4.169,4.169,0,0,0,0,8.318" transform="translate(-103.379 -32.81)" fill="#136c82"/>
    <path id="Path_690" data-name="Path 690" d="M349.7,97.717v-4.3a2.407,2.407,0,0,1,2.467-2.185,2.336,2.336,0,0,1,2.468,2.185v4.3H356.5a1.856,1.856,0,0,1,1.762,1.938,1.9,1.9,0,0,1-1.762,1.939h-1.868v10.573a2.336,2.336,0,0,1-2.468,2.185,2.407,2.407,0,0,1-2.467-2.185V101.594h-1.339a1.9,1.9,0,0,1-1.762-1.939,1.855,1.855,0,0,1,1.762-1.938Z" transform="translate(-113.27 -29.815)" fill="#136c82"/>
    <path id="Path_691" data-name="Path 691" d="M369.718,87.567a2.9,2.9,0,0,1,3,2.854,2.927,2.927,0,0,1-3,2.891,2.879,2.879,0,1,1,0-5.745m2.467,23.4a2.335,2.335,0,0,1-2.467,2.185,2.407,2.407,0,0,1-2.468-2.185V98.528a2.407,2.407,0,0,1,2.468-2.185,2.335,2.335,0,0,1,2.467,2.185Z" transform="translate(-119.824 -28.618)" fill="#136c82"/>
    <path id="Path_692" data-name="Path 692" d="M379.848,108.887a8.254,8.254,0,0,1,8.634-8.494c4.793,0,8.67,3.313,8.67,8.494a8.652,8.652,0,0,1-17.3,0m12.371,0a3.718,3.718,0,1,0-7.437,0,3.72,3.72,0,1,0,7.437,0" transform="translate(-124.138 -32.809)" fill="#136c82"/>
    <path id="Path_693" data-name="Path 693" d="M415.466,103.09a5.5,5.5,0,0,1,4.758-2.749c3.7,0,6.062,2.291,6.062,6.979v7.824a2.336,2.336,0,0,1-2.468,2.185,2.407,2.407,0,0,1-2.467-2.185v-6.767c0-2.185-1.2-3.278-2.855-3.278-1.726,0-3.031.846-3.031,3.348v6.7A2.335,2.335,0,0,1,413,117.329a2.407,2.407,0,0,1-2.467-2.185V102.7A2.407,2.407,0,0,1,413,100.517a2.335,2.335,0,0,1,2.467,2.185Z" transform="translate(-134.165 -32.792)" fill="#136c82"/>
  </g>
</svg>
